<!-- <svg width="301" height="294" viewBox="0 0 301 294" fill="none" xmlns="http://www.w3.org/2000/svg"> -->
<svg viewBox="0 0 301 294" fill="none" xmlns="http://www.w3.org/2000/svg">
<path d="M65.6257 148.521C101.87 198.089 127.542 193.9 150.454 178.156C173.366 162.411 188.16 140.368 151.916 90.7996C115.672 41.2316 64.3971 14.5174 41.4853 30.2619C18.5735 46.0064 29.3816 98.9526 65.6257 148.521Z" fill="#E7FFF9" fill-opacity="0.66"/>
<ellipse cx="139.935" cy="215.258" rx="118.935" ry="77.7419" fill="#161313"/>
<path d="M175 141C175 141 184.886 142.121 191 144C196.615 145.726 205 149.5 205 149.5V280.5C205 280.5 196.762 284.729 191 286.5C184.955 288.358 175 289.5 175 289.5V141Z" fill="#FDE406" fill-opacity="0.87"/>
<path d="M175 141C175 141 184.886 142.121 191 144C196.615 145.726 205 149.5 205 149.5V280.5C205 280.5 196.762 284.729 191 286.5C184.955 288.358 175 289.5 175 289.5V141Z" fill="#FDE406" fill-opacity="0.87"/>
<path d="M175 141C175 141 184.886 142.121 191 144C196.615 145.726 205 149.5 205 149.5V280.5C205 280.5 196.762 284.729 191 286.5C184.955 288.358 175 289.5 175 289.5V141Z" fill="#FDE406" fill-opacity="0.87"/>
<path d="M175 141C175 141 184.886 142.121 191 144C196.615 145.726 205 149.5 205 149.5V280.5C205 280.5 196.762 284.729 191 286.5C184.955 288.358 175 289.5 175 289.5V141Z" fill="#FDE406" fill-opacity="0.87"/>
<path d="M78.4638 147.729C78.4639 143.702 107.924 139.172 107.924 139.172V290.172C107.924 290.172 99.515 289.159 92.7029 287.152C85.8907 285.146 78.5635 282.003 78.0725 281.5C77.5815 280.997 78.4638 214.672 78.4638 214.672C78.4638 214.672 78.4635 168.366 78.4638 147.729Z" fill="#FDE406" fill-opacity="0.87"/>
<path d="M78.4638 147.729C78.4639 143.702 107.924 139.172 107.924 139.172V290.172C107.924 290.172 99.515 289.159 92.7029 287.152C85.8907 285.146 78.5635 282.003 78.0725 281.5C77.5815 280.997 78.4638 214.672 78.4638 214.672C78.4638 214.672 78.4635 168.366 78.4638 147.729Z" fill="#FDE406" fill-opacity="0.87"/>
<path d="M78.4638 147.729C78.4639 143.702 107.924 139.172 107.924 139.172V290.172C107.924 290.172 99.515 289.159 92.7029 287.152C85.8907 285.146 78.5635 282.003 78.0725 281.5C77.5815 280.997 78.4638 214.672 78.4638 214.672C78.4638 214.672 78.4635 168.366 78.4638 147.729Z" fill="#FDE406" fill-opacity="0.87"/>
<path d="M78.4638 147.729C78.4639 143.702 107.924 139.172 107.924 139.172V290.172C107.924 290.172 99.515 289.159 92.7029 287.152C85.8907 285.146 78.5635 282.003 78.0725 281.5C77.5815 280.997 78.4638 214.672 78.4638 214.672C78.4638 214.672 78.4635 168.366 78.4638 147.729Z" fill="#FDE406" fill-opacity="0.87"/>
<path d="M127 137.375C127 137.375 136.113 135.656 142 135.656C147.887 135.656 157 138 157 138V292.25C157 292.25 147.878 293.433 142 293.5C136.132 293.567 127 292.594 127 292.594V137.375Z" fill="#FDE406" fill-opacity="0.87"/>
<path d="M127 137.375C127 137.375 136.113 135.656 142 135.656C147.887 135.656 157 138 157 138V292.25C157 292.25 147.878 293.433 142 293.5C136.132 293.567 127 292.594 127 292.594V137.375Z" fill="#FDE406" fill-opacity="0.87"/>
<path d="M127 137.375C127 137.375 136.113 135.656 142 135.656C147.887 135.656 157 138 157 138V292.25C157 292.25 147.878 293.433 142 293.5C136.132 293.567 127 292.594 127 292.594V137.375Z" fill="#FDE406" fill-opacity="0.87"/>
<path d="M127 137.375C127 137.375 136.113 135.656 142 135.656C147.887 135.656 157 138 157 138V292.25C157 292.25 147.878 293.433 142 293.5C136.132 293.567 127 292.594 127 292.594V137.375Z" fill="#FDE406" fill-opacity="0.87"/>
<ellipse cx="51.5592" cy="111.723" rx="51.5592" ry="111.723" transform="matrix(0.824165 0.56635 -0.590243 0.807226 215.887 4)" fill="#E7FFF9" fill-opacity="0.66"/>
</svg>
