<svg viewBox="0 0 375 361" fill="none" xmlns="http://www.w3.org/2000/svg">
<g clip-path="url(#clip0_33_5)">
<path d="M7.82334 311.78C12.2322 204.849 338.835 29.2071 355.681 28.3663C372.527 27.5256 368.583 -24.2377 368.583 167.948C364.174 274.878 367.903 280.157 351.057 280.998C334.211 281.838 3.41444 418.71 7.82334 311.78Z" fill="#245069"/>
<g filter="url(#filter0_i_33_5)">
<path d="M35.4074 289.943C31.5571 218.974 361.01 56.3032 361.01 56.3032C374.446 53.6315 368.004 186.356 367.724 181.105C371.574 252.074 361.347 235.168 361.347 235.168C345.739 248.031 39.2577 360.912 35.4074 289.943Z" fill="#0E95E0" fill-opacity="0.19"/>
</g>
<g filter="url(#filter1_i_33_5)">
<path d="M39.1557 298.445C36.0551 243.587 363.454 102.325 363.454 102.325C376.767 99.6372 369.075 202.858 368.85 198.799C371.951 253.658 362.006 241.017 362.006 241.017C346.444 251.708 42.2564 353.304 39.1557 298.445Z" fill="#0E95E0" fill-opacity="0.19"/>
</g>
</g>
<defs>
<filter id="filter0_i_33_5" x="35.3739" y="56.2634" width="334.137" height="260.938" filterUnits="userSpaceOnUse" color-interpolation-filters="sRGB">
<feFlood flood-opacity="0" result="BackgroundImageFix"/>
<feBlend mode="normal" in="SourceGraphic" in2="BackgroundImageFix" result="shape"/>
<feColorMatrix in="SourceAlpha" type="matrix" values="0 0 0 0 0 0 0 0 0 0 0 0 0 0 0 0 0 0 127 0" result="hardAlpha"/>
<feOffset dy="4"/>
<feGaussianBlur stdDeviation="2"/>
<feComposite in2="hardAlpha" operator="arithmetic" k2="-1" k3="1"/>
<feColorMatrix type="matrix" values="0 0 0 0 0 0 0 0 0 0 0 0 0 0 0 0 0 0 0.25 0"/>
<feBlend mode="normal" in2="shape" result="effect1_innerShadow_33_5"/>
</filter>
<filter id="filter1_i_33_5" x="39.1338" y="102.274" width="332.129" height="216.324" filterUnits="userSpaceOnUse" color-interpolation-filters="sRGB">
<feFlood flood-opacity="0" result="BackgroundImageFix"/>
<feBlend mode="normal" in="SourceGraphic" in2="BackgroundImageFix" result="shape"/>
<feColorMatrix in="SourceAlpha" type="matrix" values="0 0 0 0 0 0 0 0 0 0 0 0 0 0 0 0 0 0 127 0" result="hardAlpha"/>
<feOffset dy="4"/>
<feGaussianBlur stdDeviation="2"/>
<feComposite in2="hardAlpha" operator="arithmetic" k2="-1" k3="1"/>
<feColorMatrix type="matrix" values="0 0 0 0 0 0 0 0 0 0 0 0 0 0 0 0 0 0 0.25 0"/>
<feBlend mode="normal" in2="shape" result="effect1_innerShadow_33_5"/>
</filter>
<clipPath id="clip0_33_5">
<rect width="375" height="361" fill="white"/>
</clipPath>
</defs>
</svg>
