<svg width="534" height="355" viewBox="0 0 534 355" fill="none" xmlns="http://www.w3.org/2000/svg">
<path d="M87.1599 280.765C92.4685 177.852 485.716 8.80919 506 8.00001C526.284 7.19083 521.534 -42.6274 521.534 142.337C516.225 245.249 520.715 250.33 500.431 251.139C480.148 251.948 81.8514 383.677 87.1599 280.765Z" fill="#245069"/>
<ellipse cx="50.7466" cy="163.208" rx="21.605" ry="15.3312" fill="#32380A"/>
<ellipse cx="21.605" cy="179.034" rx="21.605" ry="15.3312" fill="#3D3E2A"/>
<ellipse cx="404.465" cy="339.27" rx="21.605" ry="15.3312" fill="#510F2A"/>
<g filter="url(#filter0_i_3_105)">
<path d="M151.838 258.417C147.202 190.115 512.416 34.8876 512.416 34.8876C528.593 32.3163 520.837 160.053 520.5 155C525.136 223.302 512.822 207.032 512.822 207.032C494.028 219.411 156.474 326.719 151.838 258.417Z" fill="#0E95E0" fill-opacity="0.19"/>
</g>
<defs>
<filter id="filter0_i_3_105" x="151.794" y="34.8493" width="370.857" height="250.141" filterUnits="userSpaceOnUse" color-interpolation-filters="sRGB">
<feFlood flood-opacity="0" result="BackgroundImageFix"/>
<feBlend mode="normal" in="SourceGraphic" in2="BackgroundImageFix" result="shape"/>
<feColorMatrix in="SourceAlpha" type="matrix" values="0 0 0 0 0 0 0 0 0 0 0 0 0 0 0 0 0 0 127 0" result="hardAlpha"/>
<feOffset dy="4"/>
<feGaussianBlur stdDeviation="2"/>
<feComposite in2="hardAlpha" operator="arithmetic" k2="-1" k3="1"/>
<feColorMatrix type="matrix" values="0 0 0 0 0 0 0 0 0 0 0 0 0 0 0 0 0 0 0.25 0"/>
<feBlend mode="normal" in2="shape" result="effect1_innerShadow_3_105"/>
</filter>
</defs>
</svg>
