<svg width="564" height="288" viewBox="0 0 564 288" fill="none" xmlns="http://www.w3.org/2000/svg">
<g clip-path="url(#clip0_25_59)">
<path d="M296.91 275.841C144.504 227.601 2.46572 232.593 6.19982 100.03C9.93391 -32.5322 115.027 -8.81187 267.433 39.4279C419.839 87.6677 560.282 22.6771 556.548 155.24C235.428 184.317 449.316 324.081 296.91 275.841Z" fill="#EB901C"/>
<path d="M266.466 264.289C160.682 230.806 61.9442 239.604 64.9383 133.314C67.9323 27.0237 140.905 42.4688 246.689 75.9516C352.472 109.434 450.282 52.6398 447.288 158.93C224.008 193.069 372.249 297.772 266.466 264.289Z" fill="#C69C66"/>
<g filter="url(#filter0_i_25_59)">
<path d="M254.395 248.106C165.632 220.01 82.7816 227.393 85.2939 138.205C87.8062 49.0167 149.038 61.9767 237.8 90.072C326.563 118.167 408.635 70.5112 406.123 159.699C218.769 188.345 343.158 276.201 254.395 248.106Z" fill="#EFBBEA" fill-opacity="0.65"/>
</g>
</g>
<defs>
<filter id="filter0_i_25_59" x="85.2382" y="69.1281" width="320.941" height="188.447" filterUnits="userSpaceOnUse" color-interpolation-filters="sRGB">
<feFlood flood-opacity="0" result="BackgroundImageFix"/>
<feBlend mode="normal" in="SourceGraphic" in2="BackgroundImageFix" result="shape"/>
<feColorMatrix in="SourceAlpha" type="matrix" values="0 0 0 0 0 0 0 0 0 0 0 0 0 0 0 0 0 0 127 0" result="hardAlpha"/>
<feOffset dy="4"/>
<feGaussianBlur stdDeviation="2"/>
<feComposite in2="hardAlpha" operator="arithmetic" k2="-1" k3="1"/>
<feColorMatrix type="matrix" values="0 0 0 0 0 0 0 0 0 0 0 0 0 0 0 0 0 0 0.25 0"/>
<feBlend mode="normal" in2="shape" result="effect1_innerShadow_25_59"/>
</filter>
<clipPath id="clip0_25_59">
<rect width="564" height="288" fill="white"/>
</clipPath>
</defs>
</svg>
