<svg viewBox="0 0 560 369" fill="none" xmlns="http://www.w3.org/2000/svg">
<g clip-path="url(#clip0_23_55)">
<path d="M538.157 64.5286C529.605 113.002 281.846 343.124 99.9866 348.238C-81.873 353.351 89.7779 228.123 98.3297 179.649C106.882 131.175 212.608 -77.0411 312.418 43.3375C494.278 38.224 546.708 16.0548 538.157 64.5286Z" fill="#ED6D30"/>
<g filter="url(#filter0_i_23_55)">
<path d="M474.977 61.4056C468.185 99.9052 288.657 282.191 159.286 285.829C29.9159 289.466 153.793 190.355 160.585 151.856C167.377 113.356 245.604 -51.8547 314.797 44.0376C444.167 40.4 481.769 22.906 474.977 61.4056Z" fill="#2A5176" fill-opacity="0.55"/>
</g>
<g filter="url(#filter1_i_23_55)">
<path d="M456.032 61.3795C450.179 94.5544 295.482 251.629 184.004 254.763C72.5264 257.898 179.27 172.495 185.123 139.32C190.976 106.145 258.383 -36.2161 318.006 46.4136C429.484 43.2791 461.885 28.2047 456.032 61.3795Z" fill="#FFB186" fill-opacity="0.06"/>
</g>
</g>
<defs>
<filter id="filter0_i_23_55" x="100.599" y="14.5312" width="375.137" height="275.395" filterUnits="userSpaceOnUse" color-interpolation-filters="sRGB">
<feFlood flood-opacity="0" result="BackgroundImageFix"/>
<feBlend mode="normal" in="SourceGraphic" in2="BackgroundImageFix" result="shape"/>
<feColorMatrix in="SourceAlpha" type="matrix" values="0 0 0 0 0 0 0 0 0 0 0 0 0 0 0 0 0 0 127 0" result="hardAlpha"/>
<feOffset dy="4"/>
<feGaussianBlur stdDeviation="2"/>
<feComposite in2="hardAlpha" operator="arithmetic" k2="-1" k3="1"/>
<feColorMatrix type="matrix" values="0 0 0 0 0 0 0 0 0 0 0 0 0 0 0 0 0 0 0.25 0"/>
<feBlend mode="normal" in2="shape" result="effect1_innerShadow_23_55"/>
</filter>
<filter id="filter1_i_23_55" x="133.434" y="20.9882" width="323.253" height="237.859" filterUnits="userSpaceOnUse" color-interpolation-filters="sRGB">
<feFlood flood-opacity="0" result="BackgroundImageFix"/>
<feBlend mode="normal" in="SourceGraphic" in2="BackgroundImageFix" result="shape"/>
<feColorMatrix in="SourceAlpha" type="matrix" values="0 0 0 0 0 0 0 0 0 0 0 0 0 0 0 0 0 0 127 0" result="hardAlpha"/>
<feOffset dy="4"/>
<feGaussianBlur stdDeviation="2"/>
<feComposite in2="hardAlpha" operator="arithmetic" k2="-1" k3="1"/>
<feColorMatrix type="matrix" values="0 0 0 0 0 0 0 0 0 0 0 0 0 0 0 0 0 0 0.25 0"/>
<feBlend mode="normal" in2="shape" result="effect1_innerShadow_23_55"/>
</filter>
<clipPath id="clip0_23_55">
<rect width="560" height="369" fill="white"/>
</clipPath>
</defs>
</svg>
