<svg width="727" height="629" viewBox="0 0 727 629" fill="none" xmlns="http://www.w3.org/2000/svg">
<path d="M537.098 121.301C532.955 171.627 305.683 417.416 123.902 428.729C-57.8787 440.042 102.702 305.066 106.846 254.74C110.989 204.414 197.926 -14.0479 308.943 106.914C490.723 95.6014 541.241 70.9751 537.098 121.301Z" fill="#ED6D30"/>
<ellipse cx="147.91" cy="569.583" rx="19.6287" ry="14.0205" transform="rotate(-2.18058 147.91 569.583)" fill="#89632A"/>
<g filter="url(#filter0_d_1_58)">
<ellipse cx="109.25" cy="586.021" rx="19.6287" ry="14.0205" transform="rotate(-2.18058 109.25 586.021)" fill="#89632A"/>
</g>
<g filter="url(#filter1_i_1_58)">
<path d="M473.498 120.173C470.207 160.144 306.943 354.285 177.629 362.333C48.3147 370.381 163.405 263.953 166.696 223.982C169.987 184.011 233.292 10.8587 311.39 107.558C440.704 99.5104 476.789 80.2027 473.498 120.173Z" fill="#2A5176" fill-opacity="0.55"/>
</g>
<defs>
<filter id="filter0_d_1_58" x="85.6277" y="571.99" width="47.2438" height="36.0612" filterUnits="userSpaceOnUse" color-interpolation-filters="sRGB">
<feFlood flood-opacity="0" result="BackgroundImageFix"/>
<feColorMatrix in="SourceAlpha" type="matrix" values="0 0 0 0 0 0 0 0 0 0 0 0 0 0 0 0 0 0 127 0" result="hardAlpha"/>
<feOffset dy="4"/>
<feGaussianBlur stdDeviation="2"/>
<feComposite in2="hardAlpha" operator="out"/>
<feColorMatrix type="matrix" values="0 0 0 0 0 0 0 0 0 0 0 0 0 0 0 0 0 0 0.25 0"/>
<feBlend mode="normal" in2="BackgroundImageFix" result="effect1_dropShadow_1_58"/>
<feBlend mode="normal" in="SourceGraphic" in2="effect1_dropShadow_1_58" result="shape"/>
</filter>
<filter id="filter1_i_1_58" x="116.373" y="78.6012" width="357.327" height="288.164" filterUnits="userSpaceOnUse" color-interpolation-filters="sRGB">
<feFlood flood-opacity="0" result="BackgroundImageFix"/>
<feBlend mode="normal" in="SourceGraphic" in2="BackgroundImageFix" result="shape"/>
<feColorMatrix in="SourceAlpha" type="matrix" values="0 0 0 0 0 0 0 0 0 0 0 0 0 0 0 0 0 0 127 0" result="hardAlpha"/>
<feOffset dy="4"/>
<feGaussianBlur stdDeviation="2"/>
<feComposite in2="hardAlpha" operator="arithmetic" k2="-1" k3="1"/>
<feColorMatrix type="matrix" values="0 0 0 0 0 0 0 0 0 0 0 0 0 0 0 0 0 0 0.25 0"/>
<feBlend mode="normal" in2="shape" result="effect1_innerShadow_1_58"/>
</filter>
</defs>
</svg>
