<!-- <svg width="550" height="550" viewBox="0 0 550 550" fill="none" xmlns="http://www.w3.org/2000/svg"> -->
<svg viewBox="0 0 550 550" fill="none" xmlns="http://www.w3.org/2000/svg">
<path d="M148.832 219.583C130.671 193.508 139.298 121.962 153.522 112.055C167.746 102.148 175.791 161.098 193.952 187.173C212.113 213.247 221.693 238.949 207.469 248.856C193.245 258.763 166.993 245.657 148.832 219.583Z" fill="#208F96" fill-opacity="0.74"/>
<path d="M227.647 293.088C251.055 314.577 325.791 305.857 337.513 293.088C349.236 280.319 289.215 274.203 265.808 252.715C242.4 231.226 218.213 218.29 206.49 231.059C194.768 243.828 204.24 271.599 227.647 293.088Z" fill="#208F96" fill-opacity="0.74"/>
<path d="M171.221 370.881C169.683 294.899 184.772 232.972 204.925 232.564C225.078 232.156 242.663 293.421 244.202 369.403C245.74 445.385 228.793 415.593 208.64 416.001C188.487 416.409 172.76 446.863 171.221 370.881Z" fill="#ED6D30"/>
<path d="M93.6479 342.665C120.085 267.115 157.761 211.555 177.8 218.567C197.838 225.579 192.651 292.508 166.213 368.058C139.776 443.608 134.012 407.972 113.974 400.96C93.9358 393.948 67.2105 418.215 93.6479 342.665Z" fill="#ED6D30"/>
<path d="M59.964 257.026C136.259 232.824 203.313 229.609 209.732 249.845C216.151 270.082 159.505 306.105 83.2095 330.307C6.91404 354.509 31.9575 328.509 25.5384 308.273C19.1193 288.037 -16.3314 281.227 59.964 257.026Z" fill="#ED6D30"/>
<path d="M380.563 418.56C396.482 377.443 422.937 349.357 439.654 355.829C456.37 362.301 457.016 400.879 441.098 441.996C425.18 483.113 417.939 461.566 401.223 455.094C384.507 448.622 364.645 459.677 380.563 418.56Z" fill="#ED6D30"/>
<path d="M87.7747 181.748C166.139 198.05 226.161 228.114 221.837 248.899C217.514 269.684 150.482 273.318 72.1174 257.017C-6.24702 240.716 28.3253 230.329 32.649 209.544C36.9726 188.759 9.41031 165.447 87.7747 181.748Z" fill="#ED6D30"/>
<path d="M142.179 283.573C138.809 271.409 129.598 269.264 142.72 258.336C155.842 247.409 159.173 242.341 170.779 256.277C182.384 270.213 173.14 266.204 167.195 281.825C154.073 292.753 158.685 289.63 142.179 283.573Z" fill="#FDE406" fill-opacity="0.66"/>
<path d="M392.541 457.211C390.759 447.671 383.208 446.732 395.173 436.768C407.137 426.804 410.372 422.421 418.918 432.683C427.463 442.944 420.045 440.502 413.703 453.64C401.739 463.604 405.882 460.682 392.541 457.211Z" fill="#E2CD11" fill-opacity="0.99"/>
<path d="M193.816 333.723C193.816 310.726 198.269 292.083 203.762 292.083C209.255 292.083 203.762 310.726 203.762 333.723C203.762 356.721 209.255 353.913 203.762 353.913C198.269 353.913 193.816 356.721 193.816 333.723Z" fill="white" fill-opacity="0.6"/>
<path d="M139.614 324.601C144.243 307.766 153.452 295.619 160.184 297.469C166.915 299.32 156.431 311.117 151.803 327.953C147.174 344.788 154.471 344.583 147.739 342.732C141.008 340.882 134.985 341.437 139.614 324.601Z" fill="white" fill-opacity="0.6"/>
<path d="M110.557 270.465C93.8761 275.622 82.0251 285.21 84.0872 291.88C86.1493 298.55 97.6099 287.699 114.291 282.542C130.972 277.385 130.997 284.685 128.935 278.015C126.873 271.345 127.238 265.308 110.557 270.465Z" fill="white" fill-opacity="0.6"/>
<path d="M110.15 240.019C127.172 243.905 142.231 241.537 143.784 234.73C145.338 227.924 129.985 231.581 112.963 227.695C95.9405 223.81 99.5726 217.478 98.019 224.284C96.4653 231.09 93.1274 236.134 110.15 240.019Z" fill="white" fill-opacity="0.6"/>
<path d="M147.497 274.028C161.745 245.376 128.244 249.698 140.989 244.955C153.735 240.212 195.946 226.578 201.465 241.41C206.985 256.242 178.44 288.578 165.694 293.321C168.24 281.582 173.515 273.339 147.497 274.028Z" fill="#B6895F"/>
<path d="M399.448 452.252C398.429 430.102 379.595 444 385.717 436.835C391.839 429.671 412.813 407.201 421.15 414.325C429.487 421.45 423.087 450.644 416.965 457.809C414.554 449.842 414.973 443.073 399.448 452.252Z" fill="#B6895F"/>
<path d="M485.286 92.9205C495.627 105.631 481.021 94.9586 373.247 146.453C265.473 197.947 239.1 223.385 228.76 210.674C245.319 185.434 255.322 185.469 363.095 133.975C470.869 82.4805 474.946 80.2095 485.286 92.9205Z" fill="#208F96" fill-opacity="0.74"/>
<path d="M470.858 96.3282C474.945 101.352 467.219 98.067 375.274 141.998C283.33 185.929 257.387 203.398 253.3 198.375C272.076 182.555 279.318 180.998 371.262 137.066C463.207 93.1353 466.771 91.3044 470.858 96.3282Z" fill="#E7FFF9" fill-opacity="0.34"/>
<path d="M535.367 167.703C550.686 175.201 533.901 170.791 496.876 248.817C459.85 326.843 459.346 356.834 444.027 349.335C438.166 322.636 444.811 319.482 481.837 241.456C518.863 163.43 520.048 160.204 535.367 167.703Z" fill="#208F96" fill-opacity="0.74"/>
<path d="M528.12 173.362C531.897 175.211 526.869 175.997 495.282 242.563C463.694 309.129 456.507 331.407 452.73 329.558C456.851 311.245 459.986 307.313 491.574 240.748C523.161 174.182 524.342 171.513 528.12 173.362Z" fill="#E7FFF9" fill-opacity="0.34"/>
<path d="M289.386 282.467C292.286 276.001 286.882 290.071 273.575 284.101C260.267 278.132 232.708 247.582 229.808 254.048C230.259 261.875 242.76 279.942 256.067 285.911C269.374 291.881 286.486 288.933 289.386 282.467Z" fill="#E7FFF9" fill-opacity="0.38"/>
<path d="M456.192 374.114C455.315 394.105 505.542 426.124 521.238 426.457C536.935 426.789 505.593 395.678 506.471 375.687C507.348 355.696 501.899 338.852 486.202 338.519C470.505 338.187 457.07 354.123 456.192 374.114Z" fill="#208F96" fill-opacity="0.74"/>
<path d="M500.028 399.159C506.179 397.881 493.331 401.093 489.546 392.298C485.761 383.503 490.394 357.807 484.243 359.084C479.143 362.519 474.154 375.906 477.939 384.701C481.725 393.497 493.877 400.437 500.028 399.159Z" fill="#E7FFF9" fill-opacity="0.38"/>
<path d="M160.7 136.674C167.64 135.241 152.735 137.473 155.682 151.757C158.63 166.041 182.492 199.558 175.552 200.991C168.008 198.856 153.074 182.742 150.126 168.458C147.179 154.174 153.76 138.106 160.7 136.674Z" fill="#E7FFF9" fill-opacity="0.38"/>
</svg>
