<!-- <svg width="550" height="550" viewBox="0 0 550 550" fill="none" xmlns="http://www.w3.org/2000/svg"> -->
<svg viewBox="0 0 550 550" fill="none" xmlns="http://www.w3.org/2000/svg">
<path d="M323.057 295.798C287.662 364.538 248.356 432.795 312.114 465.626C375.873 498.456 315.149 378.691 350.544 309.952C385.94 241.212 467.799 238.891 404.04 206.06C340.282 173.23 358.453 227.058 323.057 295.798Z" fill="#5BA86C" fill-opacity="0.8"/>
<path d="M406.791 355.011C393.234 404.499 376.985 443.177 438.097 459.919C499.21 476.661 412.203 409.696 425.761 360.207C439.318 310.719 548.306 297.448 487.193 280.706C426.081 263.964 420.349 305.522 406.791 355.011Z" fill="#5BA86C" fill-opacity="0.8"/>
<path d="M209.176 284.425C176.19 372.524 150.305 366.113 209.176 442.11C294.411 437.621 208.121 372.524 241.108 284.425C274.094 196.326 410.273 153.533 333.823 124.908C257.374 96.2838 242.163 196.326 209.176 284.425Z" fill="#5BA86C" fill-opacity="0.8"/>
<path d="M107.908 236.618C70.9081 323.84 1.901 377.998 70.4777 407.089C139.054 436.179 100.472 336.381 137.472 249.159C174.473 161.937 273.044 120.32 204.467 91.2292C135.89 62.1385 144.908 149.395 107.908 236.618Z" fill="#5BA86C" fill-opacity="0.8"/>
<path d="M25.8041 155.11C4.32319 249.234 208.024 293.011 299.33 313.848C390.636 334.686 475.794 399.441 527.432 373.63C444.554 334.315 351.104 287.17 259.798 266.332C164.087 261.841 78.1191 205.96 25.8041 155.11Z" fill="#5BA86C" fill-opacity="0.8"/>
<ellipse cx="311.102" cy="420.998" rx="15.4847" ry="27.4502" fill="#DBFCF4" fill-opacity="0.3"/>
<ellipse cx="214.108" cy="395.502" rx="15.4847" ry="27.4502" transform="rotate(-11.8376 214.108 395.502)" fill="#DBFCF4" fill-opacity="0.3"/>
<ellipse cx="78.5023" cy="365.875" rx="15.4847" ry="27.4502" transform="rotate(-11.8376 78.5023 365.875)" fill="#DBFCF4" fill-opacity="0.3"/>
<ellipse cx="177.041" cy="133.605" rx="15.4847" ry="27.4502" transform="rotate(49.0855 177.041 133.605)" fill="#DBFCF4" fill-opacity="0.3"/>
<ellipse cx="307.552" cy="155.938" rx="15.4847" ry="27.4502" transform="rotate(50.5554 307.552 155.938)" fill="#DBFCF4" fill-opacity="0.3"/>
<ellipse cx="422.285" cy="427.987" rx="11.2616" ry="20.4117" transform="rotate(-22.7331 422.285 427.987)" fill="#DBFCF4" fill-opacity="0.3"/>
<ellipse cx="462.088" cy="295.674" rx="11.2616" ry="20.4117" transform="rotate(-115.161 462.088 295.674)" fill="#DBFCF4" fill-opacity="0.3"/>
<ellipse cx="373.041" cy="235.182" rx="15.4847" ry="27.4502" transform="rotate(47.7661 373.041 235.182)" fill="#DBFCF4" fill-opacity="0.3"/>
</svg>
