<!-- <svg width="550" height="550" viewBox="0 0 550 550" fill="none" xmlns="http://www.w3.org/2000/svg"> -->
<svg viewBox="0 0 550 550" fill="none" xmlns="http://www.w3.org/2000/svg">
<g clip-path="url(#clip0_82_498)">
<path d="M309.057 343.176C384.801 392.805 440.063 436.333 419.302 465.649C398.541 494.965 299.746 512.908 224.003 463.279C148.259 413.65 4.63677 414.272 25.3977 384.956C46.1585 355.64 233.314 293.547 309.057 343.176Z" fill="#589A16" fill-opacity="0.72"/>
<path d="M364.974 316.014C400.274 397.366 433.482 458.193 467.514 444.53C501.545 430.868 539.696 341.392 504.396 260.04C469.096 178.687 498.627 43.4885 464.595 57.1512C430.564 70.8139 329.674 234.661 364.974 316.014Z" fill="#589A16" fill-opacity="0.62"/>
<path d="M307.747 171.376C355.434 227.81 367.835 294.087 335.446 319.41C303.057 344.732 238.142 319.511 190.455 263.077C142.768 206.642 28.9379 88.1547 61.3272 62.8322C93.7165 37.5096 260.06 114.941 307.747 171.376Z" fill="#589A16" fill-opacity="0.74"/>
<path d="M230.322 186.702C284.643 232.693 325.675 273.26 321.968 277.31C318.262 281.361 277.932 240.027 223.611 194.036C169.289 148.045 121.547 114.812 125.253 110.762C128.96 106.711 176.001 140.711 230.322 186.702Z" fill="#6A960C" fill-opacity="0.78"/>
<path d="M230.322 186.702C284.643 232.693 325.675 273.26 321.968 277.31C318.262 281.361 277.932 240.027 223.611 194.036C169.289 148.045 121.547 114.812 125.253 110.762C128.96 106.711 176.001 140.711 230.322 186.702Z" fill="#6A960C" fill-opacity="0.78"/>
<path d="M403.786 309.224C388.403 287.278 374.499 270.417 372.731 271.564C370.962 272.711 385.201 289.355 400.583 311.3C415.966 333.246 426.667 352.184 428.436 351.037C430.204 349.89 419.168 331.169 403.786 309.224Z" fill="#FAC3E7" fill-opacity="0.86"/>
<path d="M315.53 397.581C305.631 382.269 299.006 368.876 300.732 367.666C302.458 366.456 308.757 380.079 318.656 395.39C328.555 410.702 338.306 421.905 336.58 423.115C334.854 424.325 325.429 412.893 315.53 397.581Z" fill="#E7FFF9" fill-opacity="0.66"/>
<path d="M274.591 381.713C267.742 371.119 263.589 361.549 265.316 360.34C267.042 359.13 270.868 368.928 277.717 379.522C284.566 390.116 291.845 397.495 290.119 398.705C288.392 399.915 281.44 392.307 274.591 381.713Z" fill="#E7FFF9" fill-opacity="0.66"/>
<path d="M224.773 373.455C220.246 366.452 217.975 359.794 219.701 358.584C221.427 357.374 223.371 364.261 227.899 371.265C232.427 378.268 237.823 382.736 236.097 383.946C234.371 385.155 229.301 380.459 224.773 373.455Z" fill="#FAC3E7" fill-opacity="0.86"/>
<path d="M455.726 272.524C465.555 257.851 474.977 246.858 476.77 247.969C478.563 249.081 468.802 259.864 458.973 274.536C449.144 289.208 442.969 302.214 441.176 301.103C439.382 299.991 445.897 287.196 455.726 272.524Z" fill="#FAC3E7" fill-opacity="0.86"/>
<path d="M219.925 161.455C223.222 172.886 227.554 181.738 229.6 181.226C231.646 180.714 226.927 171.959 223.63 160.528C220.333 149.097 219.707 139.319 217.66 139.83C215.614 140.342 216.628 150.024 219.925 161.455Z" fill="#FAC3E7" fill-opacity="0.86"/>
<path d="M255.178 413.711C272.159 409.169 286.426 407.123 287.044 409.141C287.662 411.159 273.278 412.823 256.296 417.365C239.315 421.907 226.166 427.607 225.548 425.589C224.931 423.571 238.196 418.253 255.178 413.711Z" fill="#FAC3E7" fill-opacity="0.86"/>
<path d="M255.178 413.711C272.159 409.169 286.426 407.123 287.044 409.141C287.662 411.159 273.278 412.823 256.296 417.365C239.315 421.907 226.166 427.607 225.548 425.589C224.931 423.571 238.196 418.253 255.178 413.711Z" fill="#DBFCF4" fill-opacity="0.3"/>
<path d="M303.962 432.309C320.944 427.767 335.211 425.721 335.829 427.74C336.446 429.758 322.062 431.422 305.081 435.964C288.099 440.505 274.95 446.206 274.333 444.187C273.715 442.169 286.981 436.851 303.962 432.309Z" fill="#FAC3E7" fill-opacity="0.86"/>
<path d="M205.35 398.401C224.321 393.327 240.201 390.85 240.818 392.868C241.436 394.886 225.439 396.981 206.468 402.055C187.497 407.129 172.735 413.261 172.118 411.243C171.5 409.224 186.379 403.475 205.35 398.401Z" fill="#FDFDFD" fill-opacity="0.58"/>
<path d="M158.295 383.208C169.896 380.105 179.801 379.226 180.419 381.244C181.036 383.262 171.014 383.759 159.414 386.862C147.813 389.965 139.026 394.498 138.409 392.48C137.791 390.462 146.695 386.31 158.295 383.208Z" fill="#FDFDFD" fill-opacity="0.58"/>
<path d="M463.399 342.365C474.135 328.436 484.229 318.141 485.944 319.369C487.659 320.597 477.241 330.66 466.505 344.588C455.769 358.517 448.781 371.036 447.066 369.808C445.35 368.58 452.663 356.293 463.399 342.365Z" fill="#FDFDFD" fill-opacity="0.51"/>
<path d="M446.375 201.285C452.84 192.897 459.473 187.092 461.188 188.32C462.903 189.548 455.946 195.12 449.481 203.508C443.015 211.897 439.489 219.925 437.773 218.697C436.058 217.469 439.909 209.673 446.375 201.285Z" fill="#FDFDFD" fill-opacity="0.51"/>
<path d="M408.686 231.263C402.078 221.835 395.92 214.711 394.932 215.351C393.945 215.992 400.289 222.994 406.898 232.423C413.507 241.851 417.877 250.135 418.864 249.494C419.852 248.854 415.295 240.691 408.686 231.263Z" fill="#E7FFF9" fill-opacity="0.66"/>
<path d="M267.958 194.654C272.753 211.211 278.025 224.286 279.734 223.858C281.442 223.43 275.847 210.436 271.052 193.879C266.257 177.322 264.078 163.472 262.37 163.9C260.661 164.328 263.163 178.097 267.958 194.654Z" fill="#E7FFF9" fill-opacity="0.66"/>
<path d="M215.222 203.079C198.413 199.311 184.423 197.639 183.975 199.343C183.528 201.048 197.602 202.398 214.411 206.166C231.22 209.934 244.399 214.693 244.846 212.988C245.294 211.284 232.031 206.847 215.222 203.079Z" fill="#FAC3E7" fill-opacity="0.86"/>
<path d="M178.066 165.023C168.609 162.436 160.516 161.703 159.99 163.385C159.463 165.068 167.656 165.482 177.113 168.069C186.57 170.656 193.71 174.435 194.236 172.753C194.763 171.071 187.523 167.61 178.066 165.023Z" fill="#E7FFF9" fill-opacity="0.66"/>
<path d="M244.76 239.963C223.781 235.726 206.44 233.68 206.028 235.394C205.617 237.108 223.035 238.829 244.015 243.066C264.994 247.304 281.59 252.453 282.001 250.739C282.413 249.025 265.74 244.2 244.76 239.963Z" fill="#E7FFF9" fill-opacity="0.66"/>
<path d="M423.837 283.77C432.014 352.933 443.161 408.506 448.735 407.896C454.309 407.286 442.106 351.829 433.929 282.666C425.752 213.503 454.309 146.296 448.735 146.906C443.161 147.516 415.659 214.607 423.837 283.77Z" fill="#6A960C" fill-opacity="0.78"/>
<path d="M266.783 394.965C336.304 414.294 379.924 442.907 378.367 448.091C376.809 453.274 326.146 414.294 256.626 394.965C187.105 375.636 125.053 383.278 126.61 378.094C128.168 372.91 197.263 375.636 266.783 394.965Z" fill="#6A960C" fill-opacity="0.78"/>
</g>
<defs>
<clipPath id="clip0_82_498">
<rect width="550" height="550" fill="white"/>
</clipPath>
</defs>
</svg>
