<!-- <svg width="550" height="550" viewBox="0 0 550 550" fill="none" xmlns="http://www.w3.org/2000/svg"> -->
<svg viewBox="0 0 550 550" fill="none" xmlns="http://www.w3.org/2000/svg">
<ellipse cx="24.9625" cy="21.3185" rx="24.9625" ry="21.3185" transform="matrix(0.95315 0.302498 -0.352585 0.93578 492.414 319.841)" fill="#EC4789" fill-opacity="0.71"/>
<path d="M452.927 167.131C414.463 202.95 294.455 281.017 280.468 266.609C266.481 252.2 286.324 211.483 324.789 175.663C363.253 139.844 438.121 91.4371 447.648 140.143C461.635 154.552 447.648 140.143 452.927 167.131Z" fill="#E3B510"/>
<path d="M421.44 152.272C392.183 182.84 307.344 258.484 301.952 253.534C296.56 248.583 315.907 219.789 345.165 189.22C374.422 158.651 427.293 111.633 423.527 137.783C428.919 142.734 423.527 137.783 421.44 152.272Z" fill="#B2D81A" fill-opacity="0.29"/>
<path d="M430.812 269.801C379.432 279.207 275.105 276.233 270.752 254.384C266.399 232.535 348.236 206.29 399.615 196.884C450.994 187.479 460.243 196.884 460.243 217.392C464.597 239.241 482.191 260.396 430.812 269.801Z" fill="#EEC01F"/>
<path d="M105.422 302.483C99.2126 243.375 52.3319 215.105 88.4218 213.288C124.512 211.471 154.538 256.227 160.747 315.335C166.956 374.443 65.9027 404.035 29.8128 405.852C36.6109 388.611 111.63 361.591 105.422 302.483Z" fill="#6BB81F"/>
<path d="M191.284 380.976C271.668 371.733 323.486 401.069 317.583 375.07C311.68 349.07 241.731 335.486 161.348 344.728C80.9644 353.971 47.4878 389.842 29.8128 405.852C35.7158 431.851 110.901 390.218 191.284 380.976Z" fill="#6BB81F"/>
<ellipse cx="14.2714" cy="39.3711" rx="14.2714" ry="39.3711" transform="matrix(-0.223732 0.974651 -0.981669 -0.190592 533.338 362.241)" fill="#6BB81F"/>
<path d="M492.448 349.582C478.217 364.685 461.409 372.764 454.908 367.627C448.406 362.491 454.672 346.084 468.903 330.982C483.135 315.88 499.942 307.801 506.443 312.937C512.945 318.073 506.679 334.48 492.448 349.582Z" fill="#6BB81F"/>
<path d="M297.428 160.462C313.462 209.476 308.969 254.572 287.394 261.187C265.819 267.802 217.213 166.148 201.18 117.135C185.146 68.1209 220.832 87.2912 242.407 80.6761C263.982 74.0611 281.395 111.449 297.428 160.462Z" fill="#E4B715"/>
<path d="M289.694 165.917C301.715 202.663 304.44 234.604 295.78 237.259C287.121 239.914 255.541 162.213 243.521 125.466C231.501 88.7205 248.942 105.948 257.601 103.293C266.26 100.638 277.674 129.171 289.694 165.917Z" fill="#B2D81A" fill-opacity="0.31"/>
<path d="M362.061 168.682C342.753 201.425 344.641 194.717 337.995 191.191C331.35 187.665 318.688 188.656 337.995 155.913C357.303 123.17 378.342 99.4853 384.988 103.011C391.633 106.538 381.368 135.94 362.061 168.682Z" fill="#EC4789"/>
<path d="M273.973 266.604C266 262.371 193.896 290.854 151.27 333.453C106.318 378.376 38.0935 391.472 46.0671 395.706C54.0407 399.94 133.312 389.15 175.938 346.551C218.564 303.953 281.947 270.838 273.973 266.604Z" fill="#5EA517"/>
<path d="M336.361 430.829C286.074 429.586 245.065 436.655 244.765 446.619C244.465 456.583 285.531 447.627 335.817 448.87C386.104 450.113 426.569 461.085 426.869 451.121C427.17 441.157 386.648 432.072 336.361 430.829Z" fill="#6BB81F"/>
<path d="M359.577 433.994C329.569 431.374 304.959 431.911 304.61 435.192C304.261 438.474 328.936 437.316 358.944 439.935C388.952 442.555 412.929 447.96 413.279 444.679C413.628 441.397 389.585 436.613 359.577 433.994Z" fill="#2A5176" fill-opacity="0.55"/>
<path d="M306.721 421.697C226.959 449.629 157.17 453.852 161.9 464.934C166.63 476.016 235.125 462.357 314.887 434.425C394.649 406.493 455.474 374.866 450.743 363.783C446.013 352.701 386.483 393.765 306.721 421.697Z" fill="#6BB81F"/>
<path d="M401.711 352.119C393.209 385.773 362.223 406.198 377.375 409.339C392.527 412.479 411.703 387.743 420.205 354.088C428.708 320.434 423.317 290.605 408.165 287.465C393.013 284.324 410.213 318.464 401.711 352.119Z" fill="#6BB81F"/>
<path d="M414.066 340.798C411.21 361.091 402.075 375.67 406.379 376.166C410.683 376.663 416.487 360.615 419.342 340.322C422.198 320.028 421.023 303.174 416.72 302.677C412.416 302.181 416.921 320.504 414.066 340.798Z" fill="#2A5176" fill-opacity="0.55"/>
<path d="M424.181 413.222C397.052 403.858 367.455 418.229 373.032 404.973C378.61 391.717 405.123 388.562 432.251 397.926C459.379 407.291 476.85 425.628 471.273 438.884C465.695 452.14 451.309 422.587 424.181 413.222Z" fill="#6BB81F"/>
<path d="M435.066 407.485C420.455 402.442 404.158 403.238 406.081 398.666C409.416 390.741 423.515 397.261 438.126 402.305C452.736 407.348 463.021 415.143 461.098 419.716C459.174 424.288 449.676 412.529 435.066 407.485Z" fill="#2A5176" fill-opacity="0.55"/>
<path d="M482.365 340.465C475.764 346.934 473.198 356.229 470.156 353.682C464.882 349.267 472.487 343.56 479.088 337.09C485.689 330.621 493.507 327.442 496.55 329.989C499.593 332.536 488.966 333.995 482.365 340.465Z" fill="#2A5176" fill-opacity="0.55"/>
<path d="M303.113 362.017C302.947 369.66 269.801 354.038 228.51 353.301C187.219 352.564 153.419 366.99 153.585 359.347C153.751 351.704 187.359 346.106 228.65 346.843C269.941 347.58 303.28 354.374 303.113 362.017Z" fill="#2A5176" fill-opacity="0.55"/>
<path d="M138.464 350.667C130.114 351.78 142.518 324.905 137.573 294.45C132.628 263.996 112.206 241.494 120.556 240.381C128.906 239.269 139.683 263.056 144.629 293.51C149.574 323.965 146.814 349.555 138.464 350.667Z" fill="#2A5176" fill-opacity="0.74"/>
<path d="M431.347 216.501C403.835 223.262 329.004 235.812 327.962 231.314C326.919 226.816 348.377 217.688 375.889 210.928C403.401 204.167 449.988 196.412 437.993 209.339C439.035 213.837 437.993 209.339 431.347 216.501Z" fill="#B2D81A" fill-opacity="0.29"/>
<ellipse cx="4.67323" cy="12.8481" rx="4.67323" ry="12.8481" transform="matrix(0.643169 0.765724 -0.803251 0.595641 407.646 144.329)" fill="#E6EFB0" fill-opacity="0.31"/>
<ellipse cx="3.60043" cy="13.4863" rx="3.60043" ry="13.4863" transform="matrix(0.98498 -0.172669 0.194765 0.98085 252 117.243)" fill="#E6EFB0" fill-opacity="0.31"/>
<ellipse cx="3.40195" cy="14.2753" rx="3.40195" ry="14.2753" transform="matrix(0.248417 0.968653 -0.975315 0.22082 425.462 206.002)" fill="#E6EFB0" fill-opacity="0.31"/>
<path d="M350.609 157.608C343.737 223.729 315.584 274.521 287.727 271.056C259.871 267.591 252.488 174.206 259.36 108.086C266.233 41.9646 309.394 77.3923 337.25 80.8575C365.106 84.3226 357.482 91.487 350.609 157.608Z" fill="#EABC1B"/>
</svg>
